<?xml version="1.0" encoding="utf-8"?>
<!-- Generator: Adobe Illustrator 19.1.0, SVG Export Plug-In . SVG Version: 6.00 Build 0)  -->
<svg version="1.1" id="Layer_1" xmlns="http://www.w3.org/2000/svg" xmlns:xlink="http://www.w3.org/1999/xlink" x="0px" y="0px"
	 viewBox="892.2 643.5 460 380" style="enable-background:new 892.2 643.5 460 380;" xml:space="preserve">
<style type="text/css">
	.st0{fill:#FFFFFF;stroke:#C9C8D1;stroke-width:2;stroke-miterlimit:10;}
	.st1{opacity:0.1;fill:#606279;enable-background:new    ;}
	.st2{fill:url(#SVGID_1_);}
	.st3{fill:#FFFFFF;}
	.st4{fill:none;stroke:#5D7286;stroke-width:4;stroke-miterlimit:10;}
	.st5{fill:#5D7286;}
	.st6{fill:url(#SVGID_2_);}
	.st7{fill:#C9C8D2;stroke:#FFFFFF;stroke-width:5;stroke-miterlimit:10;}
	.st8{fill:#C9C8D1;stroke:#FFFFFF;stroke-width:3;stroke-miterlimit:10;}
	.st9{fill:url(#SVGID_4_);}
	.st10{fill:url(#SVGID_5_);}
	.st11{fill:url(#SVGID_6_);}
	.st12{fill:url(#SVGID_7_);}
	.st13{fill:url(#SVGID_8_);}
	.st14{fill:#555B72;}
	.st15{fill:url(#SVGID_9_);}
	.st16{fill:url(#SVGID_10_);}
	.st17{fill:url(#SVGID_11_);}
	.st18{fill:url(#SVGID_12_);}
	.st19{fill:url(#SVGID_13_);}
	.st20{fill:url(#SVGID_14_);}
	.st21{fill:url(#SVGID_15_);}
	.st22{fill:url(#SVGID_16_);}
	.st23{fill:url(#SVGID_17_);}
	.st24{opacity:0.66;}
	.st25{fill:none;stroke:#142A43;stroke-width:4;stroke-miterlimit:10;}
	.st26{fill:#142A43;}
	.st27{fill:url(#SVGID_18_);}
	.st28{opacity:0.4;fill:none;stroke:#61627A;stroke-width:2;stroke-miterlimit:10;enable-background:new    ;}
	.st29{fill:url(#SVGID_19_);}
	.st30{opacity:0.4;enable-background:new    ;}
	.st31{fill:#61627A;}
	.st32{fill:#BCB9C4;}
	.st33{fill:url(#SVGID_20_);}
	.st34{fill:url(#SVGID_21_);}
	.st35{fill:url(#SVGID_22_);}
	.st36{fill:#C9C8D1;}
	.st37{fill:url(#SVGID_23_);}
	.st38{fill:url(#SVGID_24_);}
	.st39{fill:#BDB9C4;}
	.st40{fill:#5A5E75;}
	.st41{fill:url(#SVGID_25_);}
	.st42{fill:url(#SVGID_26_);}
	.st43{fill:none;stroke:#EAEAF0;stroke-width:2;stroke-miterlimit:10;}
	.st44{clip-path:url(#SVGID_27_);fill:none;stroke:#EAEAF0;stroke-width:2;stroke-miterlimit:10;}
	.st45{clip-path:url(#SVGID_28_);fill:none;stroke:#EAEAF0;stroke-width:2;stroke-miterlimit:10;}
	.st46{clip-path:url(#SVGID_29_);fill:none;stroke:#C0C0C0;stroke-width:2;stroke-miterlimit:10;}
	.st47{clip-path:url(#SVGID_30_);fill:#FFFFFF;stroke:#EAEAF0;stroke-width:2;stroke-miterlimit:10;}
	.st48{clip-path:url(#SVGID_31_);fill:none;stroke:#EAEAF0;stroke-width:2;stroke-miterlimit:10;}
	.st49{clip-path:url(#SVGID_32_);fill:#FFFFFF;stroke:#EAEAF0;stroke-width:2;stroke-miterlimit:10;}
	.st50{clip-path:url(#SVGID_33_);fill:#FFFFFF;stroke:#EAEAF0;stroke-width:2;stroke-miterlimit:10;}
	.st51{clip-path:url(#SVGID_34_);fill:#FFFFFF;stroke:#EAEAF0;stroke-width:2;stroke-miterlimit:10;}
	.st52{clip-path:url(#SVGID_35_);fill:#FFFFFF;stroke:#EAEAF0;stroke-width:2;stroke-miterlimit:10;}
	.st53{clip-path:url(#SVGID_36_);fill:#FFFFFF;stroke:#EAEAF0;stroke-width:2;stroke-miterlimit:10;}
	.st54{clip-path:url(#SVGID_37_);fill:#FFFFFF;stroke:#EAEAF0;stroke-width:2;stroke-miterlimit:10;}
	.st55{clip-path:url(#SVGID_38_);fill:#FFFFFF;stroke:#EAEAF0;stroke-width:2;stroke-miterlimit:10;}
	.st56{clip-path:url(#SVGID_39_);fill:#FFFFFF;stroke:#EAEAF0;stroke-width:2;stroke-miterlimit:10;}
	.st57{clip-path:url(#SVGID_40_);fill:#FFFFFF;stroke:#EAEAF0;stroke-width:2;stroke-miterlimit:10;}
	.st58{clip-path:url(#SVGID_41_);fill:none;stroke:#C9C8D1;stroke-width:2;stroke-miterlimit:10;}
	.st59{clip-path:url(#SVGID_42_);fill:#FFFFFF;stroke:#EAEAF0;stroke-width:2;stroke-miterlimit:10;}
	.st60{clip-path:url(#SVGID_43_);fill:#FFFFFF;stroke:#EAEAF0;stroke-width:2;stroke-miterlimit:10;}
	.st61{clip-path:url(#SVGID_44_);fill:#FFFFFF;stroke:#EAEAF0;stroke-width:2;stroke-miterlimit:10;}
	.st62{clip-path:url(#SVGID_45_);fill:#FFFFFF;stroke:#EAEAF0;stroke-width:2;stroke-miterlimit:10;}
	.st63{clip-path:url(#SVGID_46_);fill:#FFFFFF;stroke:#EAEAF0;stroke-width:2;stroke-miterlimit:10;}
	.st64{clip-path:url(#SVGID_47_);fill:#FFFFFF;stroke:#EAEAF0;stroke-width:2;stroke-miterlimit:10;}
	.st65{clip-path:url(#SVGID_48_);fill:#FFFFFF;stroke:#EAEAF0;stroke-width:2;stroke-miterlimit:10;}
	.st66{clip-path:url(#SVGID_49_);fill:#FFFFFF;stroke:#EAEAF0;stroke-width:2;stroke-miterlimit:10;}
	.st67{clip-path:url(#SVGID_50_);fill:#FFFFFF;stroke:#EAEAF0;stroke-width:2;stroke-miterlimit:10;}
	.st68{clip-path:url(#SVGID_51_);fill:#FFFFFF;}
	.st69{clip-path:url(#SVGID_52_);fill:#FFFFFF;}
	.st70{clip-path:url(#SVGID_53_);fill:#FFFFFF;}
	.st71{clip-path:url(#SVGID_54_);fill:#FFFFFF;stroke:#C9C8D1;stroke-width:2;stroke-miterlimit:10;}
	.st72{clip-path:url(#SVGID_55_);fill:#FFFFFF;stroke:#C9C8D1;stroke-width:2;stroke-miterlimit:10;}
	.st73{clip-path:url(#SVGID_56_);fill:#FFFFFF;stroke:#C9C8D1;stroke-width:2;stroke-miterlimit:10;}
	.st74{clip-path:url(#SVGID_57_);fill:none;stroke:#EAEAF0;stroke-width:2;stroke-miterlimit:10;}
	.st75{clip-path:url(#SVGID_58_);fill:#FFFFFF;stroke:#C9C8D1;stroke-width:2;stroke-miterlimit:10;}
	.st76{clip-path:url(#SVGID_59_);fill:#FFFFFF;stroke:#C9C8D1;stroke-width:2;stroke-miterlimit:10;}
	.st77{clip-path:url(#SVGID_60_);fill:#FFFFFF;stroke:#C9C8D1;stroke-width:2;stroke-miterlimit:10;}
	.st78{clip-path:url(#SVGID_61_);fill:#FFFFFF;}
	.st79{clip-path:url(#SVGID_62_);fill:#FFFFFF;stroke:#C9C8D1;stroke-width:2;stroke-miterlimit:10;}
	.st80{clip-path:url(#SVGID_63_);fill:none;stroke:#EAEAF0;stroke-width:2;stroke-miterlimit:10;}
	.st81{clip-path:url(#SVGID_64_);fill:#FFFFFF;stroke:#C9C8D1;stroke-width:2;stroke-miterlimit:10;}
	.st82{clip-path:url(#SVGID_65_);fill:url(#SVGID_66_);}
	.st83{clip-path:url(#SVGID_67_);fill:url(#SVGID_68_);}
	.st84{clip-path:url(#SVGID_69_);fill:url(#SVGID_70_);}
	.st85{clip-path:url(#SVGID_71_);fill:url(#SVGID_72_);}
	.st86{clip-path:url(#SVGID_73_);fill:url(#SVGID_74_);}
	.st87{clip-path:url(#SVGID_75_);fill:url(#SVGID_76_);}
	.st88{clip-path:url(#SVGID_77_);fill:url(#SVGID_78_);}
	.st89{fill:none;stroke:#FFFFFF;stroke-width:21;stroke-miterlimit:10;}
	.st90{fill:url(#SVGID_79_);}
	.st91{fill:url(#SVGID_80_);}
	.st92{opacity:0.4;fill:none;stroke:#606279;stroke-width:2;stroke-miterlimit:10;enable-background:new    ;}
	.st93{opacity:0.2;}
	.st94{fill:#606279;}
	.st95{fill:none;stroke:url(#SVGID_81_);stroke-width:2;stroke-linecap:round;stroke-miterlimit:10;}
	.st96{fill:none;stroke:url(#SVGID_82_);stroke-width:2;stroke-linecap:round;stroke-miterlimit:10;}
	.st97{opacity:0.2;fill:none;stroke:#606279;stroke-width:2;stroke-miterlimit:10;enable-background:new    ;}
	.st98{fill:url(#SVGID_83_);}
	.st99{fill:url(#SVGID_84_);}
	.st100{fill:url(#SVGID_85_);}
	.st101{fill:url(#SVGID_86_);}
	.st102{opacity:0.6;}
	.st103{opacity:0.4;}
	.st104{fill:none;stroke:#606279;stroke-width:2;stroke-miterlimit:10;}
	.st105{fill:url(#SVGID_87_);}
	.st106{fill:url(#SVGID_88_);}
	.st107{fill:url(#SVGID_89_);}
	.st108{fill:url(#SVGID_90_);}
	.st109{opacity:0.2;fill:none;stroke:#61627A;stroke-width:2;stroke-miterlimit:10;enable-background:new    ;}
	.st110{fill:url(#SVGID_91_);stroke:#FFFFFF;stroke-width:4;stroke-miterlimit:10;}
	.st111{fill:#FFFFFF;stroke:url(#SVGID_92_);stroke-miterlimit:10;stroke-dasharray:12;}
	.st112{fill:#FFFFFF;stroke:url(#SVGID_93_);stroke-width:2;stroke-miterlimit:10;}
	.st113{fill:url(#SVGID_94_);}
	.st114{fill:#404C9B;}
	.st115{fill:#C8C7D0;}
	.st116{clip-path:url(#SVGID_95_);fill:#6AC4D7;}
	.st117{clip-path:url(#SVGID_95_);fill:#6AC3D8;}
	.st118{clip-path:url(#SVGID_95_);fill:#6AC3D7;}
	.st119{clip-path:url(#SVGID_95_);fill:#69C2D7;}
	.st120{clip-path:url(#SVGID_95_);fill:#69C1D6;}
	.st121{clip-path:url(#SVGID_95_);fill:#68C0D6;}
	.st122{clip-path:url(#SVGID_95_);fill:#66BFD6;}
	.st123{clip-path:url(#SVGID_95_);fill:#67BED5;}
	.st124{clip-path:url(#SVGID_95_);fill:#65BDD5;}
	.st125{clip-path:url(#SVGID_95_);fill:#66BDD5;}
	.st126{clip-path:url(#SVGID_95_);fill:#64BCD5;}
	.st127{clip-path:url(#SVGID_95_);fill:#65BBD4;}
	.st128{clip-path:url(#SVGID_95_);fill:#63BAD4;}
	.st129{clip-path:url(#SVGID_95_);fill:#64B9D4;}
	.st130{clip-path:url(#SVGID_95_);fill:#62B9D3;}
	.st131{clip-path:url(#SVGID_95_);fill:#62B8D3;}
	.st132{clip-path:url(#SVGID_95_);fill:#63B8D3;}
	.st133{clip-path:url(#SVGID_95_);fill:#61B7D3;}
	.st134{clip-path:url(#SVGID_95_);fill:#61B6D3;}
	.st135{clip-path:url(#SVGID_95_);fill:#60B5D2;}
	.st136{clip-path:url(#SVGID_95_);fill:#61B4D2;}
	.st137{clip-path:url(#SVGID_95_);fill:#5FB4D2;}
	.st138{clip-path:url(#SVGID_95_);fill:#5FB3D1;}
	.st139{clip-path:url(#SVGID_95_);fill:#60B3D1;}
	.st140{clip-path:url(#SVGID_95_);fill:#5EB2D1;}
	.st141{clip-path:url(#SVGID_95_);fill:#5FB1D0;}
	.st142{clip-path:url(#SVGID_95_);fill:#5DB1D1;}
	.st143{clip-path:url(#SVGID_95_);fill:#5DB0D0;}
	.st144{clip-path:url(#SVGID_95_);fill:#5EB0D0;}
	.st145{clip-path:url(#SVGID_95_);fill:#5CAFCF;}
	.st146{clip-path:url(#SVGID_95_);fill:#5DAECF;}
	.st147{clip-path:url(#SVGID_95_);fill:#5BAECF;}
	.st148{clip-path:url(#SVGID_95_);fill:#5BADCF;}
	.st149{clip-path:url(#SVGID_95_);fill:#5CADCF;}
	.st150{clip-path:url(#SVGID_95_);fill:#5AACCE;}
	.st151{clip-path:url(#SVGID_95_);fill:#5BABCE;}
	.st152{clip-path:url(#SVGID_95_);fill:#59ABCE;}
	.st153{clip-path:url(#SVGID_95_);fill:#5AAACE;}
	.st154{clip-path:url(#SVGID_95_);fill:#5AAACD;}
	.st155{clip-path:url(#SVGID_95_);fill:#59A9CD;}
	.st156{clip-path:url(#SVGID_95_);fill:#59A8CD;}
	.st157{clip-path:url(#SVGID_95_);fill:#58A7CD;}
	.st158{clip-path:url(#SVGID_95_);fill:#58A7CC;}
	.st159{clip-path:url(#SVGID_95_);fill:#58A6CC;}
	.st160{clip-path:url(#SVGID_95_);fill:#57A6CC;}
	.st161{clip-path:url(#SVGID_95_);fill:#57A5CB;}
	.st162{clip-path:url(#SVGID_95_);fill:#56A4CB;}
	.st163{clip-path:url(#SVGID_95_);fill:#57A3CB;}
	.st164{clip-path:url(#SVGID_95_);fill:#55A2CA;}
	.st165{clip-path:url(#SVGID_95_);fill:#56A2CA;}
	.st166{clip-path:url(#SVGID_95_);fill:#56A1CA;}
	.st167{clip-path:url(#SVGID_95_);fill:#55A1CA;}
	.st168{clip-path:url(#SVGID_95_);fill:#55A0C9;}
	.st169{clip-path:url(#SVGID_95_);fill:#549FC9;}
	.st170{clip-path:url(#SVGID_95_);fill:#549FC8;}
	.st171{clip-path:url(#SVGID_95_);fill:#549EC9;}
	.st172{clip-path:url(#SVGID_95_);fill:#539DC8;}
	.st173{clip-path:url(#SVGID_95_);fill:#529CC7;}
	.st174{clip-path:url(#SVGID_95_);fill:#539BC7;}
	.st175{clip-path:url(#SVGID_95_);fill:#519AC7;}
	.st176{clip-path:url(#SVGID_95_);fill:#529AC6;}
	.st177{clip-path:url(#SVGID_95_);fill:#5199C6;}
	.st178{clip-path:url(#SVGID_95_);fill:#5198C5;}
	.st179{clip-path:url(#SVGID_95_);fill:#5198C6;}
	.st180{clip-path:url(#SVGID_95_);fill:#5097C5;}
	.st181{clip-path:url(#SVGID_95_);fill:#4F96C4;}
	.st182{clip-path:url(#SVGID_95_);fill:#4F95C4;}
	.st183{clip-path:url(#SVGID_95_);fill:#5095C4;}
	.st184{clip-path:url(#SVGID_95_);fill:#4E94C4;}
	.st185{clip-path:url(#SVGID_95_);fill:#4F93C3;}
	.st186{clip-path:url(#SVGID_95_);fill:#4E92C3;}
	.st187{clip-path:url(#SVGID_95_);fill:#4E92C2;}
	.st188{clip-path:url(#SVGID_95_);fill:#4E91C2;}
	.st189{clip-path:url(#SVGID_95_);fill:#4D91C2;}
	.st190{clip-path:url(#SVGID_95_);fill:#4D90C2;}
	.st191{clip-path:url(#SVGID_95_);fill:#4E90C1;}
	.st192{clip-path:url(#SVGID_95_);fill:#4C8FC1;}
	.st193{clip-path:url(#SVGID_95_);fill:#4D8EC1;}
	.st194{clip-path:url(#SVGID_95_);fill:#4C8DC0;}
	.st195{clip-path:url(#SVGID_95_);fill:#4C8CC0;}
	.st196{clip-path:url(#SVGID_95_);fill:#4B8BBF;}
	.st197{clip-path:url(#SVGID_95_);fill:#4C8BBF;}
	.st198{clip-path:url(#SVGID_95_);fill:#4B8ABF;}
	.st199{clip-path:url(#SVGID_95_);fill:#4B8ABE;}
	.st200{clip-path:url(#SVGID_95_);fill:#4B89BE;}
	.st201{clip-path:url(#SVGID_95_);fill:#4A88BD;}
	.st202{clip-path:url(#SVGID_95_);fill:#4B87BD;}
	.st203{clip-path:url(#SVGID_95_);fill:#4A86BD;}
	.st204{clip-path:url(#SVGID_95_);fill:#4A86BC;}
	.st205{clip-path:url(#SVGID_95_);fill:#4B85BC;}
	.st206{clip-path:url(#SVGID_95_);fill:#4A84BB;}
	.st207{clip-path:url(#SVGID_95_);fill:#4983BB;}
	.st208{clip-path:url(#SVGID_95_);fill:#4982BA;}
	.st209{clip-path:url(#SVGID_95_);fill:#4A82BA;}
	.st210{clip-path:url(#SVGID_95_);fill:#4881B9;}
	.st211{clip-path:url(#SVGID_95_);fill:#4981B9;}
	.st212{clip-path:url(#SVGID_95_);fill:#4880B9;}
	.st213{clip-path:url(#SVGID_95_);fill:#4980B8;}
	.st214{clip-path:url(#SVGID_95_);fill:#477FB8;}
	.st215{clip-path:url(#SVGID_95_);fill:#487EB8;}
	.st216{clip-path:url(#SVGID_95_);fill:#487EB7;}
	.st217{clip-path:url(#SVGID_95_);fill:#477DB7;}
	.st218{clip-path:url(#SVGID_95_);fill:#487CB6;}
	.st219{clip-path:url(#SVGID_95_);fill:#477CB6;}
	.st220{clip-path:url(#SVGID_95_);fill:#477BB6;}
	.st221{clip-path:url(#SVGID_95_);fill:#467AB5;}
	.st222{clip-path:url(#SVGID_95_);fill:#4779B5;}
	.st223{clip-path:url(#SVGID_95_);fill:#4678B4;}
	.st224{clip-path:url(#SVGID_95_);fill:#4677B4;}
	.st225{clip-path:url(#SVGID_95_);fill:#4576B3;}
	.st226{clip-path:url(#SVGID_95_);fill:#4676B3;}
	.st227{clip-path:url(#SVGID_95_);fill:#4575B2;}
	.st228{clip-path:url(#SVGID_95_);fill:#4674B2;}
	.st229{clip-path:url(#SVGID_95_);fill:#4473B1;}
	.st230{clip-path:url(#SVGID_95_);fill:#4573B1;}
	.st231{clip-path:url(#SVGID_95_);fill:#4472B0;}
	.st232{clip-path:url(#SVGID_95_);fill:#4471B0;}
	.st233{clip-path:url(#SVGID_95_);fill:#4571B0;}
	.st234{clip-path:url(#SVGID_95_);fill:#4470AF;}
	.st235{clip-path:url(#SVGID_95_);fill:#446FAF;}
	.st236{clip-path:url(#SVGID_95_);fill:#436EAE;}
	.st237{clip-path:url(#SVGID_95_);fill:#446EAE;}
	.st238{clip-path:url(#SVGID_95_);fill:#446DAE;}
	.st239{clip-path:url(#SVGID_95_);fill:#436CAD;}
	.st240{clip-path:url(#SVGID_95_);fill:#446CAD;}
	.st241{clip-path:url(#SVGID_95_);fill:#446BAC;}
	.st242{clip-path:url(#SVGID_95_);fill:#436BAC;}
	.st243{clip-path:url(#SVGID_95_);fill:#436AAC;}
	.st244{clip-path:url(#SVGID_95_);fill:#4269AB;}
	.st245{clip-path:url(#SVGID_95_);fill:#4369AB;}
	.st246{clip-path:url(#SVGID_95_);fill:#4368AB;}
	.st247{clip-path:url(#SVGID_95_);fill:#4267AB;}
	.st248{clip-path:url(#SVGID_95_);fill:#4367AA;}
	.st249{clip-path:url(#SVGID_95_);fill:#4266AA;}
	.st250{clip-path:url(#SVGID_95_);fill:#4266A9;}
	.st251{clip-path:url(#SVGID_95_);fill:#4365A9;}
	.st252{clip-path:url(#SVGID_95_);fill:#4264A9;}
	.st253{clip-path:url(#SVGID_95_);fill:#4264A8;}
	.st254{clip-path:url(#SVGID_95_);fill:#4163A8;}
	.st255{clip-path:url(#SVGID_95_);fill:#4262A7;}
	.st256{clip-path:url(#SVGID_95_);fill:#4161A7;}
	.st257{clip-path:url(#SVGID_95_);fill:#4261A6;}
	.st258{clip-path:url(#SVGID_95_);fill:#4160A6;}
	.st259{clip-path:url(#SVGID_95_);fill:#415FA5;}
	.st260{clip-path:url(#SVGID_95_);fill:#425FA5;}
	.st261{clip-path:url(#SVGID_95_);fill:#415EA5;}
	.st262{clip-path:url(#SVGID_95_);fill:#415DA4;}
	.st263{clip-path:url(#SVGID_95_);fill:#405DA4;}
	.st264{clip-path:url(#SVGID_95_);fill:#415CA3;}
	.st265{clip-path:url(#SVGID_95_);fill:#415BA3;}
	.st266{clip-path:url(#SVGID_95_);fill:#405BA3;}
	.st267{clip-path:url(#SVGID_95_);fill:#415AA2;}
	.st268{clip-path:url(#SVGID_95_);fill:#4159A2;}
	.st269{clip-path:url(#SVGID_95_);fill:#4059A1;}
	.st270{clip-path:url(#SVGID_95_);fill:#4158A1;}
	.st271{clip-path:url(#SVGID_95_);fill:#4057A1;}
	.st272{clip-path:url(#SVGID_95_);fill:#4057A0;}
	.st273{clip-path:url(#SVGID_95_);fill:#4156A0;}
	.st274{clip-path:url(#SVGID_95_);fill:#40559F;}
	.st275{clip-path:url(#SVGID_95_);fill:#40549F;}
	.st276{clip-path:url(#SVGID_95_);fill:#40549E;}
	.st277{clip-path:url(#SVGID_95_);fill:#40539E;}
	.st278{clip-path:url(#SVGID_95_);fill:#40529D;}
	.st279{clip-path:url(#SVGID_95_);fill:#3F519D;}
	.st280{clip-path:url(#SVGID_95_);fill:#40509C;}
	.st281{clip-path:url(#SVGID_95_);fill:#3F4F9B;}
	.st282{clip-path:url(#SVGID_95_);fill:#3F4E9B;}
	.st283{clip-path:url(#SVGID_95_);fill:#3F4D9A;}
	.st284{clip-path:url(#SVGID_95_);fill:#3F4C99;}
	.st285{clip-path:url(#SVGID_95_);fill:#3F4B99;}
	.st286{clip-path:url(#SVGID_95_);fill:#3F4A98;}
	.st287{fill:none;stroke:#142942;stroke-width:4;stroke-miterlimit:10;}
	.st288{fill:#142942;}
	.st289{opacity:0.2;enable-background:new    ;}
	.st290{fill:#60627A;}
	.st291{fill:none;}
</style>
<path class="st14" d="M1120.1,714.8c-7.2,0.1-14.4,0.7-21.6,1.9c-37.8,5.9-70.2,25.2-93.2,52.3c-23,27.1-36.4,61.9-36.4,99
	c0,7.9,0.6,16,1.9,23.9c5.9,37.8,25.2,70.2,52.3,93.2s61.9,36.4,99,36.4c7.9,0,16-0.6,23.9-1.9c23.7-3.7,45.2-12.6,63.6-25.5l-2.1-3
	l0,0c-18,12.5-39,21.3-62.2,24.8c-7.9,1.3-15.7,1.8-23.4,1.8l0,0c-36.2,0-70.3-13.2-96.7-35.6c-26.5-22.4-45.3-54.1-51-90.9
	c-1.3-7.9-1.8-15.7-1.8-23.4c0-36.2,13.2-70.3,35.6-96.7c22.4-26.5,54.1-45.3,90.9-51c7.9-1.3,15.7-1.8,23.4-1.8l0,0
	c72.5,0,136.2,52.7,147.8,126.6c1.3,7.9,1.8,15.7,1.8,23.4c0,33.9-11.6,65.9-31.5,91.6l2.8,2.2c20.4-26.3,32.2-59.1,32.2-93.8
	c0-7.9-0.6-16-1.9-23.9c-5.9-37.8-25.2-70.2-52.3-93.2c-25.7-21.7-58.3-35-93.2-36.3c-1.3,0.1-2.4,0.2-3.7,0.2
	C1123.1,715,1121.6,714.9,1120.1,714.8"/>
<polyline class="st14" points="1236.9,956.9 1238,966.1 1247.1,965.1 1243.4,962.1 1240.7,959.9 1236.9,956.9 "/>
<circle class="st36" cx="1123.1" cy="997.5" r="3.9"/>
<path class="st36" d="M1252.9,871.4c-2.2,0-3.9-1.7-3.9-3.9c0-2.1,1.7-3.8,3.9-3.8c2.1,0,3.9,1.7,3.9,3.8
	C1256.8,869.7,1255.1,871.4,1252.9,871.4z"/>
<path class="st36" d="M993.1,871.4c-2.1,0-3.9-1.7-3.9-3.9c0-2.1,1.7-3.8,3.9-3.8s3.9,1.7,3.9,3.8
	C997,869.7,995.3,871.4,993.1,871.4z"/>
<circle class="st36" cx="1214.9" cy="959.4" r="3.9"/>
<circle class="st36" cx="1031.2" cy="775.7" r="3.9"/>
<circle class="st36" cx="1031.2" cy="959.4" r="3.9"/>
<circle class="st36" cx="1214.9" cy="775.7" r="3.9"/>
<linearGradient id="SVGID_1_" gradientUnits="userSpaceOnUse" x1="-221.3802" y1="1006.1201" x2="-220.4828" y2="1006.1201" gradientTransform="matrix(63.6641 0 0 63.6641 15218.3789 -63260.4414)">
	<stop  offset="0" style="stop-color:#F8FBFE"/>
	<stop  offset="1" style="stop-color:#F9F6FB"/>
</linearGradient>
<path class="st2" d="M1124.4,733.9v118.8l57-104c0,0-23-14.6-55.8-14.6c-0.4,0-0.9,0-1.3,0C1124.4,733.9,1124.4,733.9,1124.4,733.9"
	/>
<linearGradient id="SVGID_2_" gradientUnits="userSpaceOnUse" x1="-225.2862" y1="1003.8122" x2="-224.3894" y2="1003.8122" gradientTransform="matrix(82.7398 0 0 82.7398 19747.3965 -82239.3516)">
	<stop  offset="0" style="stop-color:#BD4994"/>
	<stop  offset="1" style="stop-color:#502F88"/>
</linearGradient>
<path class="st6" d="M1133.1,857l48.3-108.3l-57.2,104.2c-3-0.4-6,0.1-8.8,1.5c-2.9,1.5-5.2,3.9-6.6,6.8c-3.7,7.5-0.6,16.6,6.9,20.3
	c4.3,2.2,9.4,2.1,13.6-0.1c2.9-1.5,5.2-3.9,6.6-6.7C1139,868.6,1137.6,861.5,1133.1,857L1133.1,857z M1135,874.1
	c-3.3,6.7-12,9.7-18.7,6.4c-6.9-3.4-9.8-11.8-6.4-18.7c1.3-2.7,3.5-4.8,6.1-6.3c4-2.1,8.6-2.1,12.6-0.1
	C1135.5,858.7,1138.4,867.1,1135,874.1z"/>
<polygon class="st5" points="1228.6,746.2 1247,764.8 1240.9,770.9 1222.4,752.3 "/>
<polygon class="st5" points="1237.2,732.7 1260.7,756.2 1251.4,765.3 1227.9,741.8 "/>
<path class="st39" d="M1124.7,645.5c-19.2,0-34.8,15.6-34.8,34.8c0,17.7,13.2,32.3,30.2,34.4c0.8,0,1.5,0,2.3,0c2,0,3.9,0,5.9,0.1
	c17.5-1.9,31-16.6,31-34.5h-0.9h-0.9c0,9.1-3.7,17.3-9.7,23.3s-14.2,9.7-23.3,9.7c-9.1,0-17.3-3.7-23.3-9.7c-6-6-9.7-14.2-9.7-23.3
	s3.7-17.3,9.7-23.3c6-6,14.2-9.7,23.3-9.7c9.1,0,17.3,3.7,23.3,9.7c6,6,9.7,14.2,9.7,23.3h0.9h0.9l0,0
	C1159.4,661.1,1143.9,645.5,1124.7,645.5"/>
<path class="st40" d="M1122.4,714.8c-0.8,0-1.5,0-2.3,0c1.4,0.2,3,0.3,4.5,0.3c1.3,0,2.5-0.1,3.7-0.2
	C1126.4,714.8,1124.4,714.8,1122.4,714.8"/>
<rect x="1111.3" y="702.5" class="st5" width="26.3" height="12.9"/>
<rect x="1107.8" y="687" class="st5" width="33.2" height="12.7"/>
<circle class="st36" cx="1123.1" cy="737.6" r="3.9"/>
</svg>
